<svg id="visual" viewBox="0 0 900 300" width="900" height="300" xmlns="http://www.w3.org/2000/svg" xmlns:xlink="http://www.w3.org/1999/xlink" version="1.1"><path d="M0 110L21.5 118C43 126 86 142 128.8 148.3C171.7 154.7 214.3 151.3 257.2 143.7C300 136 343 124 385.8 123.5C428.7 123 471.3 134 514.2 136.5C557 139 600 133 642.8 132.7C685.7 132.3 728.3 137.7 771.2 136.8C814 136 857 129 878.5 125.5L900 122L900 0L878.5 0C857 0 814 0 771.2 0C728.3 0 685.7 0 642.8 0C600 0 557 0 514.2 0C471.3 0 428.7 0 385.8 0C343 0 300 0 257.2 0C214.3 0 171.7 0 128.8 0C86 0 43 0 21.5 0L0 0Z" fill="#fa7268"></path><path d="M0 136L21.5 136.7C43 137.3 86 138.7 128.8 133.5C171.7 128.3 214.3 116.7 257.2 112.5C300 108.3 343 111.7 385.8 108.3C428.7 105 471.3 95 514.2 98.3C557 101.7 600 118.3 642.8 127C685.7 135.7 728.3 136.3 771.2 134.2C814 132 857 127 878.5 124.5L900 122L900 0L878.5 0C857 0 814 0 771.2 0C728.3 0 685.7 0 642.8 0C600 0 557 0 514.2 0C471.3 0 428.7 0 385.8 0C343 0 300 0 257.2 0C214.3 0 171.7 0 128.8 0C86 0 43 0 21.5 0L0 0Z" fill="#ef5f67"></path><path d="M0 90L21.5 89.8C43 89.7 86 89.3 128.8 86.2C171.7 83 214.3 77 257.2 72.8C300 68.7 343 66.3 385.8 65.8C428.7 65.3 471.3 66.7 514.2 73.2C557 79.7 600 91.3 642.8 92C685.7 92.7 728.3 82.3 771.2 78.8C814 75.3 857 78.7 878.5 80.3L900 82L900 0L878.5 0C857 0 814 0 771.2 0C728.3 0 685.7 0 642.8 0C600 0 557 0 514.2 0C471.3 0 428.7 0 385.8 0C343 0 300 0 257.2 0C214.3 0 171.7 0 128.8 0C86 0 43 0 21.5 0L0 0Z" fill="#e34c67"></path><path d="M0 75L21.5 74C43 73 86 71 128.8 67.8C171.7 64.7 214.3 60.3 257.2 56.7C300 53 343 50 385.8 53.7C428.7 57.3 471.3 67.7 514.2 70C557 72.3 600 66.7 642.8 63C685.7 59.3 728.3 57.7 771.2 54.3C814 51 857 46 878.5 43.5L900 41L900 0L878.5 0C857 0 814 0 771.2 0C728.3 0 685.7 0 642.8 0C600 0 557 0 514.2 0C471.3 0 428.7 0 385.8 0C343 0 300 0 257.2 0C214.3 0 171.7 0 128.8 0C86 0 43 0 21.5 0L0 0Z" fill="#d53867"></path><path d="M0 22L21.5 24C43 26 86 30 128.8 33.2C171.7 36.3 214.3 38.7 257.2 39.8C300 41 343 41 385.8 39C428.7 37 471.3 33 514.2 29.3C557 25.7 600 22.3 642.8 21.3C685.7 20.3 728.3 21.7 771.2 22C814 22.3 857 21.7 878.5 21.3L900 21L900 0L878.5 0C857 0 814 0 771.2 0C728.3 0 685.7 0 642.8 0C600 0 557 0 514.2 0C471.3 0 428.7 0 385.8 0C343 0 300 0 257.2 0C214.3 0 171.7 0 128.8 0C86 0 43 0 21.5 0L0 0Z" fill="#c62368"></path></svg>