<svg id="visual" viewBox="0 0 900 300" width="900" height="300" xmlns="http://www.w3.org/2000/svg" xmlns:xlink="http://www.w3.org/1999/xlink" version="1.1"><path d="M0 188L21.5 180C43 172 86 156 128.8 149.7C171.7 143.3 214.3 146.7 257.2 154.3C300 162 343 174 385.8 174.5C428.7 175 471.3 164 514.2 161.5C557 159 600 165 642.8 165.3C685.7 165.7 728.3 160.3 771.2 161.2C814 162 857 169 878.5 172.5L900 176L900 301L878.5 301C857 301 814 301 771.2 301C728.3 301 685.7 301 642.8 301C600 301 557 301 514.2 301C471.3 301 428.7 301 385.8 301C343 301 300 301 257.2 301C214.3 301 171.7 301 128.8 301C86 301 43 301 21.5 301L0 301Z" fill="#fa7268"></path><path d="M0 162L21.5 161.3C43 160.7 86 159.3 128.8 164.5C171.7 169.7 214.3 181.3 257.2 185.5C300 189.7 343 186.3 385.8 189.7C428.7 193 471.3 203 514.2 199.7C557 196.3 600 179.7 642.8 171C685.7 162.3 728.3 161.7 771.2 163.8C814 166 857 171 878.5 173.5L900 176L900 301L878.5 301C857 301 814 301 771.2 301C728.3 301 685.7 301 642.8 301C600 301 557 301 514.2 301C471.3 301 428.7 301 385.8 301C343 301 300 301 257.2 301C214.3 301 171.7 301 128.8 301C86 301 43 301 21.5 301L0 301Z" fill="#ef5f67"></path><path d="M0 208L21.5 208.2C43 208.3 86 208.7 128.8 211.8C171.7 215 214.3 221 257.2 225.2C300 229.3 343 231.7 385.8 232.2C428.7 232.7 471.3 231.3 514.2 224.8C557 218.3 600 206.7 642.8 206C685.7 205.3 728.3 215.7 771.2 219.2C814 222.7 857 219.3 878.5 217.7L900 216L900 301L878.5 301C857 301 814 301 771.2 301C728.3 301 685.7 301 642.8 301C600 301 557 301 514.2 301C471.3 301 428.7 301 385.8 301C343 301 300 301 257.2 301C214.3 301 171.7 301 128.8 301C86 301 43 301 21.5 301L0 301Z" fill="#e34c67"></path><path d="M0 223L21.5 224C43 225 86 227 128.8 230.2C171.7 233.3 214.3 237.7 257.2 241.3C300 245 343 248 385.8 244.3C428.7 240.7 471.3 230.3 514.2 228C557 225.7 600 231.3 642.8 235C685.7 238.7 728.3 240.3 771.2 243.7C814 247 857 252 878.5 254.5L900 257L900 301L878.5 301C857 301 814 301 771.2 301C728.3 301 685.7 301 642.8 301C600 301 557 301 514.2 301C471.3 301 428.7 301 385.8 301C343 301 300 301 257.2 301C214.3 301 171.7 301 128.8 301C86 301 43 301 21.5 301L0 301Z" fill="#d53867"></path><path d="M0 276L21.5 274C43 272 86 268 128.8 264.8C171.7 261.7 214.3 259.3 257.2 258.2C300 257 343 257 385.8 259C428.7 261 471.3 265 514.2 268.7C557 272.3 600 275.7 642.8 276.7C685.7 277.7 728.3 276.3 771.2 276C814 275.7 857 276.3 878.5 276.7L900 277L900 301L878.5 301C857 301 814 301 771.2 301C728.3 301 685.7 301 642.8 301C600 301 557 301 514.2 301C471.3 301 428.7 301 385.8 301C343 301 300 301 257.2 301C214.3 301 171.7 301 128.8 301C86 301 43 301 21.5 301L0 301Z" fill="#c62368"></path></svg>